<?xml version="1.0" encoding="utf-8" ?><svg xmlns="http://www.w3.org/2000/svg" xmlns:xlink="http://www.w3.org/1999/xlink" width="729" height="792" viewBox="0 0 729 792"><path fill="white" d="M361.983 114.193C380.847 113.738 387.468 125.863 397.687 139.587C401.814 145.128 405.881 150.786 409.962 156.363L452.813 214.511L529.866 318.623C553.366 349.828 576.345 381.421 598.793 413.39C584.203 414.407 565.892 413.865 550.846 413.81C538.12 413.764 514.79 414.833 502.771 413.139C499.525 410.001 492.736 400.341 489.773 396.256L467.722 365.788L389.848 258.161C384.705 251.066 372.259 231.123 366.096 226.94C363.86 226.393 362.478 227.606 361.049 229.198C354.188 236.844 348.426 245.381 342.581 253.786C337.398 261.237 332.108 268.612 326.71 275.909L252.243 377.542C246.552 385.291 231.008 408.387 224.34 413.387C216.697 414.165 201.347 413.349 192.83 413.419C171.47 413.595 150.024 413.791 128.674 413.402C146.424 389.94 164.052 366.387 181.559 342.743L284.176 204.463L324.435 150.543C326.924 147.208 329.364 143.814 331.9 140.517C340.758 129 346.492 117.032 361.983 114.193Z"/><path fill="white" d="M568.466 439.484C576.991 439.517 586.722 439.482 595.17 440.153C583.701 459.085 567.809 478.781 554.401 496.509C539.742 516.131 525.203 535.841 510.784 555.64L423.759 673.503L402.173 702.734C391.796 716.906 380.769 739.081 360.048 735.451C355.463 734.626 347.241 731.139 344.295 727.376C331.052 710.461 318.34 691.867 305.409 674.765C266.329 623.243 227.726 571.362 189.606 519.126L149.474 465.429C143.675 457.587 135.917 448.509 131.204 440.21L191.426 440.136C203.287 440.1 215.398 439.461 227.208 440.317C230.22 443.894 234.417 450.384 237.257 454.437C242.251 461.519 247.343 468.532 252.532 475.473C280.142 512.649 306.839 550.446 334.681 587.45C340.79 595.287 345.637 603.169 351.532 611.217C353.235 613.214 361.123 625.653 363.817 624.808C369.351 623.071 374.533 613.659 377.958 609.096C379.146 607.514 380.417 605.606 381.537 604.04C388.18 594.808 394.875 585.614 401.621 576.457L469.299 483.575C476.949 472.945 484.138 461.953 492.306 451.703C494.151 449.628 499.551 440.142 502.264 439.981C524.192 438.675 546.536 440.541 568.466 439.484Z"/><path fill="white" d="M287.447 334.766L288.839 335.223C288.843 335.19 252.024 384.356 248.518 389.283L247.91 389.007C247.844 386.828 250.427 384.66 251.745 382.885L259.525 372.356L278.003 347.251C281.19 342.955 284.286 339.229 287.447 334.766Z"/><path fill="white" d="M287.447 334.766C290.174 330.454 316.606 293.649 318.539 292.708L319.021 292.927C318.349 296.114 316.205 297.428 314.401 299.81C306.309 310.499 298.951 321.707 290.644 332.232C289.819 333.277 289.587 334.263 288.839 335.223L287.447 334.766Z"/><path fill="white" d="M403.155 706.394C403.806 707.021 403.576 706.747 403.889 707.692C401.862 711.886 397.378 716.526 394.173 720.036C393.68 720.448 393.688 720.513 393.458 721.114L393.043 720.849C393.238 719.565 401.572 708.817 403.155 706.394Z"/><path fill="white" d="M358.98 235.765C359.382 236.042 359.147 235.843 359.584 236.462C359.006 237.78 352.655 247.229 351.498 248.245L350.813 247.666C351.055 246.027 357.465 237.975 358.98 235.765Z"/><path fill="white" d="M438.049 658.444C438.579 658.828 438.384 658.668 438.691 659.342C437.966 660.905 435.003 665.447 433.533 666.069L433.367 666.393L432.99 666.473C433.058 665.339 437.175 659.672 438.049 658.444Z"/><path fill="white" d="M556.097 499.114L556.638 499.44C555.191 503.122 553.107 503.651 552.506 505.524C552.289 505.56 552.462 505.569 551.823 505.233C551.896 503.894 554.981 500.136 556.097 499.114Z"/><path fill="white" d="M510.356 561.493C510.74 562.045 510.604 561.863 510.706 562.612C509.14 564.145 507.626 565.73 506.165 567.363L505.791 566.891C506.159 565.456 509.045 562.956 510.356 561.493Z"/></svg>