<?xml version="1.0" encoding="utf-8" ?><svg xmlns="http://www.w3.org/2000/svg" xmlns:xlink="http://www.w3.org/1999/xlink" width="729" height="792" viewBox="0 0 729 792"><path fill="#131718" d="M361.643 114.19C380.435 113.485 387.094 125.397 397.306 139.287C410.378 157.066 423.392 174.923 436.526 192.658L541.1 334.008L583.983 392.281C588.109 397.874 595.07 408.769 598.909 413.4C585.753 414.424 572.176 413.736 558.965 413.76C542.196 413.79 525.173 414.367 508.434 413.642C506.855 413.574 503.929 413.576 502.549 412.819C500.696 411.801 410.224 285.64 401.949 274.196C399.421 270.698 396.565 267.446 394.048 263.937C389.745 257.94 385.345 251.988 381.161 245.908C377.578 240.703 374.237 235.159 370.096 230.377C368.992 229.103 367.87 228.138 366.443 227.231C365.553 226.889 365.439 226.9 364.493 226.706C359.568 227.975 342.445 254.549 337.831 260.757L248.52 382.769C243.872 388.998 229.458 410.171 224.68 413.327C220.263 413.64 215.317 413.622 210.872 413.518C183.736 412.882 156.035 414.159 128.963 413.257C169.683 359.059 210.106 304.639 250.23 250L301.696 181.078C312.438 166.704 323.195 152.269 333.939 137.88C341.584 127.643 347.623 116.707 361.643 114.19Z"/><path fill="#131718" d="M503.287 439.914C519.153 439.281 537.738 439.889 553.869 439.749C565.462 439.648 584.289 439.233 595.143 440.169C590.083 448.842 583.602 457.233 577.81 465.48C569.721 476.999 560.704 487.949 552.37 499.302L463.142 620.398L409.999 692.181L396.475 710.711C386.95 723.914 378.98 738.017 360.087 735.418C355.087 734.731 346.258 730.216 343.433 726.451C331.974 711.182 319.962 694.403 308.63 679.087L252.986 604.98L224.215 566.573C221.87 563.464 220.16 560.035 217.627 556.818L217.295 556.399C212.129 550.238 207.737 543.478 202.977 537.072L177.917 503.556L159.109 478.771C156.529 475.301 152.857 470.056 150.389 466.604C146.598 461.301 133.785 445.464 131.556 440.517C155.387 439.157 180.567 440.879 204.53 440.168C211.772 439.953 220.118 440.012 227.324 440.337C241.201 460.666 255.593 479.362 269.982 499.121C291.67 529.305 313.63 559.292 335.861 589.079C344.37 600.453 352.038 613.13 361.359 623.834C364.799 627.785 371.279 618.832 372.922 616.422C379.385 606.945 386.145 597.638 392.953 588.414L466.644 487.311C475.797 474.8 484.213 461.461 494.154 449.486C496.935 446.137 498.186 440.356 502.869 439.946L503.287 439.914Z"/></svg>